<svg xmlns="http://www.w3.org/2000/svg" viewBox="0 0 64 64">
  <defs>
    <linearGradient id="g" x1="0" y1="0" x2="1" y2="1">
      <stop offset="0" stop-color="#2d74ff"/>
      <stop offset="1" stop-color="#111213"/>
    </linearGradient>
  </defs>
  <rect width="64" height="64" rx="12" fill="url(#g)"/>
  <!-- grid dots -->
  <g fill="#fff" opacity="0.9">
    <!-- 5x5 mini grid as a hint -->
    <circle cx="16" cy="20" r="2.2"/>
    <circle cx="24" cy="20" r="2.2"/>
    <circle cx="32" cy="20" r="2.2"/>
    <circle cx="40" cy="20" r="2.2"/>
    <circle cx="48" cy="20" r="2.2"/>

    <circle cx="16" cy="28" r="2.2"/>
    <circle cx="24" cy="28" r="2.2"/>
    <circle cx="32" cy="28" r="2.2"/>
    <circle cx="40" cy="28" r="2.2"/>
    <circle cx="48" cy="28" r="2.2"/>

    <circle cx="16" cy="36" r="2.2"/>
    <circle cx="24" cy="36" r="2.2" />
    <circle cx="32" cy="36" r="2.2" fill="#4e8dff"/>
    <circle cx="40" cy="36" r="2.2"/>
    <circle cx="48" cy="36" r="2.2"/>

    <circle cx="16" cy="44" r="2.2" opacity="0.5"/>
    <circle cx="24" cy="44" r="2.2" opacity="0.5"/>
    <circle cx="32" cy="44" r="2.2" opacity="0.5"/>
    <circle cx="40" cy="44" r="2.2" opacity="0.5"/>
    <circle cx="48" cy="44" r="2.2" opacity="0.5"/>
  </g>
</svg>
